<?xml version="1.0" encoding="UTF-8" standalone="no"?>
<!DOCTYPE svg PUBLIC "-//W3C//DTD SVG 1.1//EN" "http://www.w3.org/Graphics/SVG/1.1/DTD/svg11.dtd">
<svg width="100%" height="100%" viewBox="0 0 1188 1188" version="1.1" xmlns="http://www.w3.org/2000/svg" xmlns:xlink="http://www.w3.org/1999/xlink" xml:space="preserve" xmlns:serif="http://www.serif.com/" style="fill-rule:evenodd;clip-rule:evenodd;stroke-linejoin:round;stroke-miterlimit:2;">
    <g transform="matrix(1,0,0,1,-98.1349,-107.641)">
        <g transform="matrix(0.73366,0,0,0.73366,50.836,101.673)">
            <g transform="matrix(959.72,0,0,959.72,1167.41,1240.16)">
            </g>
            <text x="514.799px" y="1240.16px" style="font-family:'Futura-Bold', 'Futura', sans-serif;font-weight:700;font-size:959.72px;fill:white;">$</text>
        </g>
        <g transform="matrix(1,0,0,1,-782.605,-578.724)">
            <path d="M1313.76,701.306C1357.38,691.532 1402.74,686.366 1449.29,686.366C1790.68,686.366 2067.84,963.529 2067.84,1304.91C2067.84,1372.28 2057.02,1437.15 2037.07,1497.88L1820.9,1421.54C1832.46,1384.71 1838.67,1345.54 1838.67,1304.91C1838.67,1090.01 1664.2,915.532 1449.29,915.532C1422.84,915.532 1397,918.165 1372.03,923.194L1313.76,701.306Z" style="fill:white;"/>
        </g>
        <g transform="matrix(1,0,0,1,-782.605,-578.724)">
            <path d="M1349.4,1732.88C1381.49,1740.35 1414.93,1744.3 1449.29,1744.3C1624.7,1744.3 1776.25,1641.29 1846.68,1492.51L1968.97,1535.69C1880.41,1734.63 1680.94,1873.47 1449.29,1873.47C1401.83,1873.47 1355.73,1867.63 1311.65,1856.65L1349.4,1732.88Z" style="fill:white;"/>
        </g>
        <g transform="matrix(1,0,0,1,-782.605,-578.724)">
            <path d="M1255.85,1839.64C1037.17,1760.43 880.74,1550.8 880.74,1304.91C880.74,1254.18 887.409,1204.99 899.904,1158.17L1022.19,1201.35C1014.16,1234.57 1009.91,1269.25 1009.91,1304.91C1009.91,1492.61 1127.84,1652.98 1293.6,1715.88L1255.85,1839.64Z" style="fill:white;"/>
        </g>
        <g transform="matrix(1,0,0,1,-782.605,-578.724)">
            <path d="M1303.12,890.457C1182.5,933.046 1085.97,1026.84 1039.69,1145.67L917.845,1102.64C978.406,943.794 1108.19,819.002 1270.23,765.197L1303.12,890.457Z" style="fill:white;"/>
        </g>
    </g>
</svg>
